<svg xmlns="http://www.w3.org/2000/svg" version="1.1" xmlns:xlink="http://www.w3.org/1999/xlink" xmlns:svgjs="http://svgjs.dev/svgjs" id="BgenPttrnSvgRootPreview" width="100%" height="100%"><defs><pattern x="0" y="0" width="1" height="1" patternUnits="userSpaceOnUse" id="BgenPttrnLayer1"><g id="PatternRootContent1"><g id="BgenPttrnLayer1background"><rect width="1" height="1" id="BgenPttrnBackground1" class="color_1 fill_color_1" fill="#b0b0b0"></rect></g></g></pattern><pattern x="0" y="0" width="40" height="22" patternUnits="userSpaceOnUse" id="BgenPttrnLayer2" patternTransform="matrix(0.6,0,0,0.6,0,0)"><g id="PatternRootContent2"><g id="BgenPttrnLayer2Element1"><use xlink:href="#BgenPttrnElement1" x="-44" y="-35" transform="translate(-25, -16) scale(1) translate(25, 16) rotate(0, -20, -11)"></use><use xlink:href="#BgenPttrnElement1" x="-4" y="-35" transform="translate(15, -16) scale(1) translate(-15, 16) rotate(0, 20, -11)"></use><use xlink:href="#BgenPttrnElement1" x="-4" y="-13" transform="translate(15, 6) scale(1) translate(-15, -6) rotate(0, 20, 11)"></use><use xlink:href="#BgenPttrnElement1" x="-44" y="-13" transform="translate(-25, 6) scale(1) translate(25, -6) rotate(0, -20, 11)"></use><use xlink:href="#BgenPttrnElement1" x="36" y="-13" transform="translate(55, 6) scale(1) translate(-55, -6) rotate(0, 60, 11)"></use><use xlink:href="#BgenPttrnElement1" x="-4" y="9" transform="translate(15, 28) scale(1) translate(-15, -28) rotate(0, 20, 33)"></use><use xlink:href="#BgenPttrnElement1" x="-4" y="9" transform="translate(15, 28) scale(1) translate(-15, -28) rotate(0, 20, 33)"></use></g></g></pattern><symbol id="BgenPttrnElement1"><path d="M24 4L9 40.59 10.41 42 24 36l13.59 6L39 40.59z" class="color_2 fill_color_2" fill="#7a6767"></path></symbol></defs><rect width="100%" height="100%" id="BgenPttrnRctLayer1" fill="url(&quot;#BgenPttrnLayer1&quot;)"></rect><rect width="100%" height="100%" id="BgenPttrnRctLayer2" fill="url(&quot;#BgenPttrnLayer2&quot;)"></rect></svg>